# xmcd CD database file
#
# Track frame offsets:
#	150
#	17815
#	31842
#	45177
#	64265
#	82192
#	98827
#	120412
#	132430
#	153282
#	165630
#	182277
#	197315
#	216427
#
# Disc length: 3079 seconds
#
# Revision: 1
# Processed by: cddbd v1.5.1PL0 Copyright (c) Steve Scherf et al.
# Submitted via: CDex 1.50
#
DISCID=ad0c050e
DTITLE=Wanda sá and Joao Donato - Wanda sá and Joao Donato
DYEAR=2004
DGENRE=Jazz
TTITLE0=Minha saudade
TTITLE1=Não tem nada, não
TTITLE2=Perdido/Samba torto
TTITLE3=Falta de ar
TTITLE4=Cartão de visita
TTITLE5=There will never be another you
TTITLE6=Receita de samba
TTITLE7=Sambou, sambou (Sambou... sambou)
TTITLE8=O que é amar
TTITLE9=A rã
TTITLE10=But not for me
TTITLE11=Daquele amor, nem me fale
TTITLE12=É como esse que eu vou
TTITLE13=Quem diz que sabe
EXTD=YEAR: 2004
EXTT0=
EXTT1=
EXTT2=
EXTT3=
EXTT4=
EXTT5=
EXTT6=
EXTT7=
EXTT8=
EXTT9=
EXTT10=
EXTT11=
EXTT12=
EXTT13=
PLAYORDER=
